<?xml version="1.0" encoding="UTF-8"?>
<svg xmlns="http://www.w3.org/2000/svg" xmlns:xlink="http://www.w3.org/1999/xlink" width="358px" height="500px" viewBox="0 0 358 500" version="1.1">
<g id="surface1">
<path style=" stroke:none;fill-rule:nonzero;fill:rgb(0%,0%,0%);fill-opacity:1;" d="M 139.933594 181.3125 L 202.105469 489.003906 L 208.070312 485.257812 Z M 139.933594 181.3125 "/>
<path style=" stroke:none;fill-rule:nonzero;fill:rgb(0%,0%,0%);fill-opacity:1;" d="M 51.363281 82.496094 L 114.753906 481.621094 L 106.578125 480.300781 Z M 51.363281 82.496094 "/>
<path style=" stroke:none;fill-rule:nonzero;fill:rgb(0%,0%,0%);fill-opacity:1;" d="M 61.523438 18.160156 C 61.523438 18.160156 59.867188 69.71875 51.363281 82.496094 C 51.363281 82.496094 41.09375 51.207031 61.523438 18.160156 "/>
<path style=" stroke:none;fill-rule:nonzero;fill:rgb(0%,0%,0%);fill-opacity:1;" d="M 91.890625 37.21875 C 91.890625 37.21875 71.792969 77.648438 59.644531 84.148438 C 59.757812 84.257812 61.742188 54.734375 91.890625 37.21875 "/>
<path style=" stroke:none;fill-rule:nonzero;fill:rgb(0%,0%,0%);fill-opacity:1;" d="M 28.835938 0.3125 C 28.835938 0.3125 56.109375 60.242188 49.707031 80.070312 C 49.707031 80.070312 14.589844 50.65625 28.835938 0.3125 "/>
<path style=" stroke:none;fill-rule:nonzero;fill:rgb(0%,0%,0%);fill-opacity:1;" d="M 105.253906 58.257812 C 105.253906 58.257812 83.386719 110.699219 76.542969 125.347656 C 74.886719 128.765625 73.558594 130.308594 72.566406 130.417969 C 69.363281 130.746094 68.589844 118.851562 69.363281 110.917969 C 70.355469 100.121094 80.847656 68.171875 105.253906 58.257812 "/>
<path style=" stroke:none;fill-rule:nonzero;fill:rgb(0%,0%,0%);fill-opacity:1;" d="M 72.015625 129.425781 C 72.015625 129.425781 72.234375 129.203125 72.125 129.644531 C 71.019531 134.492188 64.613281 163.6875 64.726562 168.753906 C 64.945312 174.371094 63.070312 161.261719 63.070312 161.261719 Z M 72.015625 129.425781 "/>
<path style=" stroke:none;fill-rule:nonzero;fill:rgb(0%,0%,0%);fill-opacity:1;" d="M 59.757812 83.707031 C 59.757812 83.707031 60.308594 83.484375 60.199219 83.707031 C 58.207031 88.222656 56.332031 107.832031 56.445312 113.011719 C 56.554688 118.628906 55.226562 108.382812 55.226562 108.382812 Z M 59.757812 83.707031 "/>
<path style=" stroke:none;fill-rule:nonzero;fill:rgb(0%,0%,0%);fill-opacity:1;" d="M 112.652344 81.285156 C 112.652344 81.285156 97.414062 151.789062 87.253906 166.882812 C 74.332031 186.160156 75.769531 147.601562 77.867188 140.769531 C 79.964844 133.941406 89.351562 93.84375 112.652344 81.285156 "/>
<path style=" stroke:none;fill-rule:nonzero;fill:rgb(0%,0%,0%);fill-opacity:1;" d="M 59.757812 83.707031 C 59.757812 83.707031 60.308594 83.484375 60.199219 83.707031 C 58.207031 88.222656 56.332031 107.832031 56.445312 113.011719 C 56.554688 118.628906 55.226562 108.382812 55.226562 108.382812 Z M 59.757812 83.707031 "/>
<path style=" stroke:none;fill-rule:nonzero;fill:rgb(0%,0%,0%);fill-opacity:1;" d="M 80.40625 169.636719 C 80.40625 169.636719 80.628906 169.304688 80.519531 169.855469 C 79.414062 175.253906 72.34375 207.75 72.453125 213.480469 C 72.453125 219.761719 70.910156 205.21875 70.910156 205.21875 Z M 80.40625 169.636719 "/>
<path style=" stroke:none;fill-rule:nonzero;fill:rgb(0%,0%,0%);fill-opacity:1;" d="M 144.679688 114.554688 C 144.679688 114.554688 112.210938 192.882812 98.40625 208.523438 C 80.847656 228.464844 87.695312 182.632812 91.5625 175.035156 C 95.425781 167.429688 118.503906 125.238281 144.679688 114.554688 "/>
<path style=" stroke:none;fill-rule:nonzero;fill:rgb(0%,0%,0%);fill-opacity:1;" d="M 90.015625 212.601562 C 90.015625 212.601562 90.566406 211.277344 90.457031 211.828125 C 89.128906 217.777344 79.523438 249.945312 79.636719 256.335938 C 79.746094 263.277344 77.644531 248.292969 77.644531 248.292969 Z M 90.015625 212.601562 "/>
<path style=" stroke:none;fill-rule:nonzero;fill:rgb(0%,0%,0%);fill-opacity:1;" d="M 159.253906 155.316406 C 159.253906 155.316406 120.273438 235.734375 106.25 252.589844 C 88.46875 273.960938 98.296875 222.84375 104.59375 209.40625 C 110.996094 195.632812 133.082031 166.992188 159.253906 155.316406 "/>
<path style=" stroke:none;fill-rule:nonzero;fill:rgb(0%,0%,0%);fill-opacity:1;" d="M 97.742188 256.996094 C 97.742188 256.996094 98.296875 255.5625 98.1875 256.226562 C 96.863281 262.613281 86.8125 296.875 86.8125 303.707031 C 86.8125 311.085938 84.933594 295.222656 84.933594 295.222656 Z M 97.742188 256.996094 "/>
<path style=" stroke:none;fill-rule:nonzero;fill:rgb(0%,0%,0%);fill-opacity:1;" d="M 166.546875 198.828125 C 166.546875 198.828125 127.5625 279.359375 113.539062 296.214844 C 95.757812 317.699219 105.585938 266.46875 111.878906 253.03125 C 118.285156 239.152344 140.261719 210.394531 166.546875 198.828125 "/>
<path style=" stroke:none;fill-rule:nonzero;fill:rgb(0%,0%,0%);fill-opacity:1;" d="M 105.035156 300.511719 C 105.035156 300.511719 105.585938 299.078125 105.472656 299.738281 C 104.148438 306.128906 93.992188 341.601562 93.992188 348.324219 C 93.992188 355.703125 91.78125 338.296875 91.78125 338.296875 Z M 105.035156 300.511719 "/>
<path style=" stroke:none;fill-rule:nonzero;fill:rgb(0%,0%,0%);fill-opacity:1;" d="M 184.988281 238.707031 C 184.988281 238.707031 137.613281 321 123.585938 337.855469 C 105.808594 359.339844 119.058594 301.613281 125.351562 288.171875 C 131.757812 274.292969 158.703125 250.277344 184.988281 238.707031 "/>
<path style=" stroke:none;fill-rule:nonzero;fill:rgb(0%,0%,0%);fill-opacity:1;" d="M 116.738281 341.933594 C 116.738281 341.933594 117.070312 341.164062 116.960938 341.933594 C 115.414062 349.644531 102.605469 391.726562 102.382812 399.878906 C 102.160156 408.804688 99.621094 388.089844 99.621094 388.089844 Z M 116.738281 341.933594 "/>
<path style=" stroke:none;fill-rule:nonzero;fill:rgb(0%,0%,0%);fill-opacity:1;" d="M 208.953125 288.722656 C 208.953125 288.722656 190.398438 318.136719 169.195312 342.042969 C 154.949219 358.015625 137.5 369.585938 130.765625 375.3125 C 109.339844 393.160156 134.078125 341.273438 142.691406 329.152344 C 151.414062 316.703125 181.011719 295.445312 208.953125 288.722656 "/>
<path style=" stroke:none;fill-rule:nonzero;fill:rgb(0%,0%,0%);fill-opacity:1;" d="M 123.03125 377.738281 C 123.03125 377.738281 123.367188 376.964844 123.253906 377.738281 C 121.707031 385.449219 108.015625 430.945312 108.125 439.097656 C 108.125 441.082031 105.472656 424.226562 105.472656 424.226562 Z M 123.03125 377.738281 "/>
<path style=" stroke:none;fill-rule:nonzero;fill:rgb(0%,0%,0%);fill-opacity:1;" d="M 216.128906 334.664062 C 216.128906 334.664062 195.367188 367.820312 171.625 394.8125 C 155.722656 412.878906 136.398438 426.097656 128.777344 432.488281 C 104.925781 452.757812 132.863281 394.484375 142.582031 380.710938 C 152.410156 366.722656 185.320312 342.59375 216.128906 334.664062 "/>
<path style=" stroke:none;fill-rule:nonzero;fill:rgb(0%,0%,0%);fill-opacity:1;" d="M 235.125 411.886719 C 235.125 411.886719 197.910156 428.304688 170.632812 445.046875 C 138.714844 464.65625 133.304688 466.636719 124.582031 468.289062 C 96.863281 473.46875 146.335938 421.03125 159.699219 414.421875 C 173.390625 407.699219 206.300781 403.40625 235.125 411.886719 "/>
<path style=" stroke:none;fill-rule:nonzero;fill:rgb(0%,0%,0%);fill-opacity:1;" d="M 119.71875 436.894531 C 119.941406 436.34375 120.164062 435.792969 120.496094 435.351562 C 119.5 439.320312 110.886719 456.832031 111.660156 461.242188 C 111.878906 462.234375 110.113281 453.640625 110.113281 453.640625 Z M 119.71875 436.894531 "/>
<path style=" stroke:none;fill-rule:nonzero;fill:rgb(0%,0%,0%);fill-opacity:1;" d="M 119.71875 465.539062 C 119.71875 465.539062 120.382812 464.65625 120.382812 464.765625 C 119.71875 466.75 112.542969 474.902344 113.648438 477.105469 C 113.867188 477.65625 111.550781 473.140625 111.550781 473.140625 Z M 119.71875 465.539062 "/>
<path style=" stroke:none;fill-rule:nonzero;fill:rgb(0%,0%,0%);fill-opacity:1;" d="M 30.601562 33.804688 C 30.601562 33.804688 44.074219 83.046875 52.6875 94.832031 C 52.6875 94.832031 51.804688 64.097656 30.601562 33.804688 "/>
<path style=" stroke:none;fill-rule:nonzero;fill:rgb(0%,0%,0%);fill-opacity:1;" d="M 15.472656 54.074219 C 15.472656 54.074219 38.109375 91.527344 47.609375 97.035156 C 47.609375 97.035156 39.214844 68.835938 15.472656 54.074219 "/>
<path style=" stroke:none;fill-rule:nonzero;fill:rgb(0%,0%,0%);fill-opacity:1;" d="M 47.386719 14.632812 C 47.386719 14.632812 44.074219 73.792969 53.019531 92.300781 C 53.128906 92.300781 68.703125 61.894531 47.386719 14.632812 "/>
<path style=" stroke:none;fill-rule:nonzero;fill:rgb(0%,0%,0%);fill-opacity:1;" d="M 11.9375 75.003906 C 11.9375 75.003906 38.664062 123.804688 46.617188 137.359375 C 48.492188 140.550781 49.707031 141.875 50.480469 141.875 C 52.578125 141.984375 50.257812 130.636719 47.828125 122.925781 C 44.628906 112.898438 30.160156 82.9375 11.9375 75.003906 "/>
<path style=" stroke:none;fill-rule:nonzero;fill:rgb(0%,0%,0%);fill-opacity:1;" d="M 50.480469 140.992188 C 50.480469 140.992188 50.257812 140.769531 50.480469 141.214844 C 52.355469 145.730469 63.511719 173.269531 64.613281 178.226562 C 65.828125 183.625 63.953125 170.957031 63.953125 170.957031 Z M 50.480469 140.992188 "/>
<path style=" stroke:none;fill-rule:nonzero;fill:rgb(0%,0%,0%);fill-opacity:1;" d="M 47.496094 96.488281 C 47.496094 96.488281 47.164062 96.375 47.277344 96.488281 C 49.59375 100.671875 55.558594 119.398438 56.664062 124.246094 C 57.878906 129.644531 56.332031 119.730469 56.332031 119.730469 Z M 47.496094 96.488281 "/>
<path style=" stroke:none;fill-rule:nonzero;fill:rgb(0%,0%,0%);fill-opacity:1;" d="M 12.710938 97.585938 C 12.710938 97.585938 39.4375 164.128906 49.707031 177.898438 C 62.738281 195.523438 52.578125 158.726562 49.484375 152.230469 C 46.394531 145.730469 30.601562 108.054688 12.710938 97.585938 "/>
<path style=" stroke:none;fill-rule:nonzero;fill:rgb(0%,0%,0%);fill-opacity:1;" d="M 47.496094 96.488281 C 47.496094 96.488281 47.164062 96.375 47.277344 96.488281 C 49.59375 100.671875 55.558594 119.398438 56.664062 124.246094 C 57.878906 129.644531 56.332031 119.730469 56.332031 119.730469 Z M 47.496094 96.488281 "/>
<path style=" stroke:none;fill-rule:nonzero;fill:rgb(0%,0%,0%);fill-opacity:1;" d="M 54.675781 180.101562 C 54.675781 180.101562 54.457031 179.878906 54.675781 180.320312 C 56.664062 185.386719 69.03125 216.125 70.355469 221.632812 C 71.792969 227.582031 69.363281 213.699219 69.363281 213.699219 Z M 54.675781 180.101562 "/>
<path style=" stroke:none;fill-rule:nonzero;fill:rgb(0%,0%,0%);fill-opacity:1;" d="M 0.0117188 131.519531 C 0.0117188 131.519531 39.765625 204.449219 52.46875 218.550781 C 68.589844 236.617188 53.128906 192.992188 48.824219 186.050781 C 44.515625 179.109375 19.449219 140.003906 0.0117188 131.519531 "/>
<path style=" stroke:none;fill-rule:nonzero;fill:rgb(0%,0%,0%);fill-opacity:1;" d="M 58.871094 221.851562 C 58.871094 221.851562 58.207031 220.640625 58.429688 221.191406 C 60.640625 226.8125 74.664062 256.996094 76.101562 263.164062 C 77.757812 269.886719 75.4375 255.34375 75.4375 255.34375 Z M 58.871094 221.851562 "/>
<path style=" stroke:none;fill-rule:nonzero;fill:rgb(0%,0%,0%);fill-opacity:1;" d="M 0.34375 171.507812 C 0.34375 171.507812 44.847656 246.089844 57.988281 261.292969 C 74.664062 280.679688 56 232.320312 48.714844 219.871094 C 41.3125 206.984375 20.109375 180.871094 0.34375 171.507812 "/>
<path style=" stroke:none;fill-rule:nonzero;fill:rgb(0%,0%,0%);fill-opacity:1;" d="M 64.503906 264.925781 C 64.503906 264.925781 63.730469 263.605469 63.953125 264.15625 C 66.382812 270.214844 81.070312 302.382812 82.726562 308.882812 C 84.492188 316.046875 81.84375 300.621094 81.84375 300.621094 Z M 64.503906 264.925781 "/>
<path style=" stroke:none;fill-rule:nonzero;fill:rgb(0%,0%,0%);fill-opacity:1;" d="M 6.085938 213.589844 C 6.085938 213.589844 50.589844 288.171875 63.730469 303.375 C 80.40625 322.765625 61.742188 274.402344 54.457031 261.953125 C 46.945312 249.066406 25.855469 222.953125 6.085938 213.589844 "/>
<path style=" stroke:none;fill-rule:nonzero;fill:rgb(0%,0%,0%);fill-opacity:1;" d="M 70.246094 307.011719 C 70.246094 307.011719 69.472656 305.6875 69.695312 306.238281 C 72.125 312.300781 87.144531 345.570312 88.800781 352.066406 C 90.566406 359.226562 87.804688 342.375 87.804688 342.375 Z M 70.246094 307.011719 "/>
<path style=" stroke:none;fill-rule:nonzero;fill:rgb(0%,0%,0%);fill-opacity:1;" d="M 3.765625 252.921875 C 3.765625 252.921875 54.125 328.714844 67.265625 343.914062 C 83.941406 363.304688 61.523438 308.992188 54.234375 296.433594 C 46.726562 283.65625 23.535156 262.285156 3.765625 252.921875 "/>
<path style=" stroke:none;fill-rule:nonzero;fill:rgb(0%,0%,0%);fill-opacity:1;" d="M 72.675781 347.550781 C 72.675781 347.550781 72.234375 346.890625 72.453125 347.550781 C 75.328125 354.820312 93.660156 394.371094 95.757812 402.082031 C 98.078125 410.566406 94.765625 390.625 94.765625 390.625 Z M 72.675781 347.550781 "/>
<path style=" stroke:none;fill-rule:nonzero;fill:rgb(0%,0%,0%);fill-opacity:1;" d="M 0.34375 302.382812 C 0.34375 302.382812 19.339844 329.375 38.886719 350.855469 C 51.914062 365.289062 66.050781 375.3125 71.683594 380.269531 C 89.792969 396.023438 61.410156 347.882812 52.910156 336.753906 C 44.183594 325.40625 20 307.011719 0.34375 302.382812 "/>
<path style=" stroke:none;fill-rule:nonzero;fill:rgb(0%,0%,0%);fill-opacity:1;" d="M 77.203125 382.144531 C 77.203125 382.144531 76.761719 381.480469 76.984375 382.144531 C 79.855469 389.414062 99.621094 432.15625 101.5 439.980469 C 101.941406 441.851562 99.621094 425.546875 99.621094 425.546875 Z M 77.203125 382.144531 "/>
<path style=" stroke:none;fill-rule:nonzero;fill:rgb(0%,0%,0%);fill-opacity:1;" d="M 6.636719 347 C 6.636719 347 28.0625 377.40625 49.929688 401.753906 C 64.613281 418.054688 80.296875 429.40625 86.589844 435.132812 C 106.800781 453.089844 74.773438 399 65.277344 386.441406 C 55.558594 373.550781 28.503906 352.621094 6.636719 347 "/>
<path style=" stroke:none;fill-rule:nonzero;fill:rgb(0%,0%,0%);fill-opacity:1;" d="M 12.933594 422.132812 C 12.933594 422.132812 40.984375 435.464844 62.515625 449.785156 C 87.914062 466.527344 91.78125 468.070312 97.855469 469.0625 C 116.960938 472.257812 72.453125 425.21875 62.1875 419.710938 C 51.804688 414.09375 29.496094 412.105469 12.933594 422.132812 "/>
<path style=" stroke:none;fill-rule:nonzero;fill:rgb(0%,0%,0%);fill-opacity:1;" d="M 93.546875 438.546875 C 93.546875 438.546875 92.554688 436.785156 92.667969 437.113281 C 94.210938 440.863281 104.039062 457.054688 104.59375 461.351562 C 104.703125 462.34375 103.710938 453.96875 103.710938 453.96875 Z M 93.546875 438.546875 "/>
<path style=" stroke:none;fill-rule:nonzero;fill:rgb(0%,0%,0%);fill-opacity:1;" d="M 100.398438 466.089844 C 100.398438 466.089844 99.734375 465.207031 99.84375 465.425781 C 100.726562 467.300781 107.351562 474.570312 107.132812 476.882812 C 107.132812 477.4375 107.460938 472.921875 107.460938 472.921875 Z M 100.398438 466.089844 "/>
<path style=" stroke:none;fill-rule:nonzero;fill:rgb(0%,0%,0%);fill-opacity:1;" d="M 113.976562 138.789062 C 113.976562 138.789062 129.660156 175.144531 139.933594 181.3125 C 139.933594 181.3125 139.15625 155.425781 113.976562 138.789062 "/>
<path style=" stroke:none;fill-rule:nonzero;fill:rgb(0%,0%,0%);fill-opacity:1;" d="M 95.757812 163.023438 C 95.757812 163.023438 122.59375 185.058594 133.964844 185.496094 C 133.855469 185.496094 124.027344 165.007812 95.757812 163.023438 "/>
<path style=" stroke:none;fill-rule:nonzero;fill:rgb(0%,0%,0%);fill-opacity:1;" d="M 134.519531 114.773438 C 134.519531 114.773438 129.992188 167.101562 140.59375 179.109375 C 140.480469 179 159.589844 145.839844 134.519531 114.773438 "/>
<path style=" stroke:none;fill-rule:nonzero;fill:rgb(0%,0%,0%);fill-opacity:1;" d="M 91.226562 182.632812 C 91.226562 182.632812 122.8125 212.601562 132.3125 220.640625 C 134.519531 222.515625 135.953125 223.175781 136.839844 222.84375 C 139.378906 221.964844 136.730469 213.261719 133.855469 207.75 C 130.101562 200.480469 112.984375 181.3125 91.226562 182.632812 "/>
<path style=" stroke:none;fill-rule:nonzero;fill:rgb(0%,0%,0%);fill-opacity:1;" d="M 136.949219 222.074219 C 136.949219 222.074219 136.730469 221.964844 136.949219 222.183594 C 139.15625 225.269531 152.300781 243.886719 153.625 247.632812 C 155.058594 251.707031 152.851562 241.683594 152.851562 241.683594 Z M 136.949219 222.074219 "/>
<path style=" stroke:none;fill-rule:nonzero;fill:rgb(0%,0%,0%);fill-opacity:1;" d="M 133.636719 185.167969 C 133.636719 185.167969 133.195312 185.167969 133.304688 185.277344 C 136.066406 187.8125 143.023438 201.253906 144.347656 204.996094 C 145.785156 209.074219 144.015625 201.253906 144.015625 201.253906 Z M 133.636719 185.167969 "/>
<path style=" stroke:none;fill-rule:nonzero;fill:rgb(0%,0%,0%);fill-opacity:1;" d="M 91.890625 201.804688 C 91.890625 201.804688 123.367188 246.96875 135.515625 254.242188 C 150.976562 263.496094 139.046875 236.507812 135.515625 232.320312 C 131.980469 228.132812 113.539062 202.683594 91.890625 201.804688 "/>
<path style=" stroke:none;fill-rule:nonzero;fill:rgb(0%,0%,0%);fill-opacity:1;" d="M 133.636719 185.167969 C 133.636719 185.167969 133.195312 185.167969 133.304688 185.277344 C 136.066406 187.8125 143.023438 201.253906 144.347656 204.996094 C 145.785156 209.074219 144.015625 201.253906 144.015625 201.253906 Z M 133.636719 185.167969 "/>
<path style=" stroke:none;fill-rule:nonzero;fill:rgb(0%,0%,0%);fill-opacity:1;" d="M 141.585938 253.800781 C 141.585938 253.800781 141.367188 253.691406 141.585938 253.910156 C 144.015625 257.328125 158.484375 278.257812 160.140625 282.332031 C 161.796875 286.851562 159.035156 275.945312 159.035156 275.945312 Z M 141.585938 253.800781 "/>
<path style=" stroke:none;fill-rule:nonzero;fill:rgb(0%,0%,0%);fill-opacity:1;" d="M 76.320312 236.617188 C 76.320312 236.617188 123.476562 281.453125 138.605469 287.84375 C 157.820312 296.101562 139.710938 265.589844 134.519531 261.511719 C 129.328125 257.4375 99.621094 235.183594 76.320312 236.617188 "/>
<path style=" stroke:none;fill-rule:nonzero;fill:rgb(0%,0%,0%);fill-opacity:1;" d="M 146.226562 287.84375 C 146.226562 287.84375 145.453125 287.070312 145.671875 287.511719 C 148.324219 291.367188 164.777344 310.976562 166.546875 315.601562 C 168.421875 320.671875 165.769531 309.214844 165.769531 309.214844 Z M 146.226562 287.84375 "/>
<path style=" stroke:none;fill-rule:nonzero;fill:rgb(0%,0%,0%);fill-opacity:1;" d="M 76.320312 270.765625 C 76.320312 270.765625 129.109375 314.832031 144.789062 322.105469 C 164.667969 331.246094 142.691406 298.089844 134.078125 290.59375 C 125.242188 282.886719 100.0625 269.996094 76.320312 270.765625 "/>
<path style=" stroke:none;fill-rule:nonzero;fill:rgb(0%,0%,0%);fill-opacity:1;" d="M 152.519531 322.324219 C 152.519531 322.324219 151.636719 321.554688 151.96875 321.882812 C 154.839844 325.960938 172.175781 347.113281 174.054688 351.957031 C 176.152344 357.246094 173.171875 345.238281 173.171875 345.238281 Z M 152.519531 322.324219 "/>
<path style=" stroke:none;fill-rule:nonzero;fill:rgb(0%,0%,0%);fill-opacity:1;" d="M 82.835938 304.476562 C 82.835938 304.476562 135.625 348.542969 151.304688 355.8125 C 171.183594 364.957031 149.207031 331.796875 140.59375 324.304688 C 131.757812 316.59375 106.578125 303.707031 82.835938 304.476562 "/>
<path style=" stroke:none;fill-rule:nonzero;fill:rgb(0%,0%,0%);fill-opacity:1;" d="M 159.035156 355.921875 C 159.035156 355.921875 158.152344 355.152344 158.484375 355.484375 C 161.355469 359.558594 179.132812 381.480469 181.011719 386.328125 C 183.109375 391.617188 179.90625 378.398438 179.90625 378.398438 Z M 159.035156 355.921875 "/>
<path style=" stroke:none;fill-rule:nonzero;fill:rgb(0%,0%,0%);fill-opacity:1;" d="M 79.636719 339.398438 C 79.636719 339.398438 139.488281 381.921875 155.058594 389.085938 C 174.9375 398.226562 148.433594 361.652344 139.820312 354.160156 C 130.984375 346.449219 103.375 338.628906 79.636719 339.398438 "/>
<path style=" stroke:none;fill-rule:nonzero;fill:rgb(0%,0%,0%);fill-opacity:1;" d="M 161.574219 389.742188 C 161.574219 389.742188 161.023438 389.304688 161.355469 389.742188 C 164.667969 394.703125 186.421875 420.371094 188.851562 426.207031 C 191.503906 432.488281 187.746094 416.84375 187.746094 416.84375 Z M 161.574219 389.742188 "/>
<path style=" stroke:none;fill-rule:nonzero;fill:rgb(0%,0%,0%);fill-opacity:1;" d="M 74.996094 383.464844 C 74.996094 383.464844 97.632812 398.117188 120.824219 407.8125 C 136.398438 414.3125 153.183594 416.625 160.03125 418.277344 C 181.675781 423.675781 147.992188 395.03125 137.832031 389.304688 C 127.5625 383.574219 98.628906 378.617188 74.996094 383.464844 "/>
<path style=" stroke:none;fill-rule:nonzero;fill:rgb(0%,0%,0%);fill-opacity:1;" d="M 166.65625 417.503906 C 166.65625 417.503906 166.105469 417.066406 166.433594 417.503906 C 169.746094 422.464844 193.160156 450.335938 195.367188 456.175781 C 195.921875 457.605469 193.269531 444.605469 193.269531 444.605469 Z M 166.65625 417.503906 "/>
<path style=" stroke:none;fill-rule:nonzero;fill:rgb(0%,0%,0%);fill-opacity:1;" d="M 82.171875 418.9375 C 82.171875 418.9375 107.574219 435.464844 133.636719 446.589844 C 151.085938 454.078125 169.859375 456.722656 177.476562 458.707031 C 201.664062 464.988281 163.671875 432.929688 152.300781 426.429688 C 140.703125 419.820312 108.457031 413.980469 82.171875 418.9375 "/>
<path style=" stroke:none;fill-rule:nonzero;fill:rgb(0%,0%,0%);fill-opacity:1;" d="M 89.019531 480.738281 C 89.019531 480.738281 122.59375 479.640625 148.433594 482.171875 C 178.800781 485.148438 183.550781 484.707031 190.730469 482.835938 C 213.699219 476.882812 160.582031 456.503906 148.433594 456.394531 C 135.84375 456.285156 109.121094 464.65625 89.019531 480.738281 "/>
<path style=" stroke:none;fill-rule:nonzero;fill:rgb(0%,0%,0%);fill-opacity:1;" d="M 185.761719 458.707031 C 185.761719 458.707031 184.542969 457.605469 184.765625 457.828125 C 186.644531 460.359375 198.238281 469.835938 198.902344 473.25 C 199.011719 474.019531 197.910156 467.300781 197.910156 467.300781 Z M 185.761719 458.707031 "/>
<path style=" stroke:none;fill-rule:nonzero;fill:rgb(0%,0%,0%);fill-opacity:1;" d="M 193.710938 479.199219 C 193.710938 479.199219 192.9375 478.757812 193.046875 478.867188 C 194.042969 480.082031 201.882812 483.382812 201.773438 485.367188 C 201.773438 485.808594 202.324219 481.84375 202.324219 481.84375 Z M 193.710938 479.199219 "/>
<path style=" stroke:none;fill-rule:nonzero;fill:rgb(0%,0%,0%);fill-opacity:1;" d="M 142.46875 139.339844 C 142.46875 139.339844 145.785156 179.332031 142.359375 190.566406 C 142.359375 190.566406 134.519531 168.3125 142.46875 139.339844 "/>
<path style=" stroke:none;fill-rule:nonzero;fill:rgb(0%,0%,0%);fill-opacity:1;" d="M 159.808594 148.59375 C 159.808594 148.59375 152.628906 183.296875 146.777344 190.457031 C 146.886719 190.457031 145.5625 167.429688 159.808594 148.59375 "/>
<path style=" stroke:none;fill-rule:nonzero;fill:rgb(0%,0%,0%);fill-opacity:1;" d="M 124.027344 131.410156 C 124.027344 131.410156 143.132812 172.609375 141.367188 189.023438 C 141.257812 189.023438 120.714844 172.609375 124.027344 131.410156 "/>
<path style=" stroke:none;fill-rule:nonzero;fill:rgb(0%,0%,0%);fill-opacity:1;" d="M 168.535156 162.367188 C 168.535156 162.367188 161.355469 206.539062 159.035156 218.988281 C 158.484375 221.964844 157.929688 223.285156 157.378906 223.617188 C 155.722656 224.496094 154.398438 215.464844 154.175781 209.183594 C 153.625 200.8125 156.496094 174.371094 168.535156 162.367188 "/>
<path style=" stroke:none;fill-rule:nonzero;fill:rgb(0%,0%,0%);fill-opacity:1;" d="M 156.9375 222.953125 C 156.9375 222.953125 157.046875 222.734375 156.9375 223.066406 C 156.714844 226.921875 155.722656 250.496094 156.273438 254.464844 C 156.828125 258.757812 154.839844 249.066406 154.839844 249.066406 Z M 156.9375 222.953125 "/>
<path style=" stroke:none;fill-rule:nonzero;fill:rgb(0%,0%,0%);fill-opacity:1;" d="M 146.886719 190.015625 C 146.886719 190.015625 147.109375 189.796875 147.109375 189.90625 C 146.445312 193.761719 147.109375 209.183594 147.550781 213.039062 C 148.101562 217.335938 146.558594 209.734375 146.558594 209.734375 Z M 146.886719 190.015625 "/>
<path style=" stroke:none;fill-rule:nonzero;fill:rgb(0%,0%,0%);fill-opacity:1;" d="M 174.164062 178.78125 C 174.164062 178.78125 171.957031 235.625 167.871094 249.066406 C 162.679688 266.140625 160.359375 236.285156 160.914062 230.667969 C 161.464844 225.046875 163.121094 192.546875 174.164062 178.78125 "/>
<path style=" stroke:none;fill-rule:nonzero;fill:rgb(0%,0%,0%);fill-opacity:1;" d="M 146.886719 190.015625 C 146.886719 190.015625 147.109375 189.796875 147.109375 189.90625 C 146.445312 193.761719 147.109375 209.183594 147.550781 213.039062 C 148.101562 217.335938 146.558594 209.734375 146.558594 209.734375 Z M 146.886719 190.015625 "/>
<path style=" stroke:none;fill-rule:nonzero;fill:rgb(0%,0%,0%);fill-opacity:1;" d="M 164.554688 252.367188 C 164.554688 252.367188 164.667969 252.148438 164.554688 252.480469 C 164.335938 256.773438 163.34375 283.105469 163.894531 287.511719 C 164.445312 292.25 162.457031 281.453125 162.457031 281.453125 Z M 164.554688 252.367188 "/>
<path style=" stroke:none;fill-rule:nonzero;fill:rgb(0%,0%,0%);fill-opacity:1;" d="M 193.492188 198.609375 C 193.492188 198.609375 182.890625 264.597656 177.035156 279.136719 C 169.527344 297.644531 169.417969 261.070312 170.742188 254.683594 C 172.066406 248.292969 180.792969 211.5 193.492188 198.609375 "/>
<path style=" stroke:none;fill-rule:nonzero;fill:rgb(0%,0%,0%);fill-opacity:1;" d="M 172.949219 283.65625 C 172.949219 283.65625 173.171875 282.554688 173.171875 282.996094 C 172.949219 287.84375 170.519531 314.28125 171.074219 319.128906 C 171.625 324.527344 169.417969 313.289062 169.417969 313.289062 Z M 172.949219 283.65625 "/>
<path style=" stroke:none;fill-rule:nonzero;fill:rgb(0%,0%,0%);fill-opacity:1;" d="M 204.421875 227.359375 C 204.421875 227.359375 190.621094 296.214844 184.65625 311.636719 C 177.148438 331.246094 178.140625 290.265625 180.238281 278.699219 C 182.445312 267.019531 191.613281 241.023438 204.421875 227.359375 "/>
<path style=" stroke:none;fill-rule:nonzero;fill:rgb(0%,0%,0%);fill-opacity:1;" d="M 180.679688 316.484375 C 180.679688 316.484375 180.902344 315.273438 180.902344 315.714844 C 180.679688 320.890625 178.25 348.984375 178.800781 354.273438 C 179.355469 360 177.148438 348.101562 177.148438 348.101562 Z M 180.679688 316.484375 "/>
<path style=" stroke:none;fill-rule:nonzero;fill:rgb(0%,0%,0%);fill-opacity:1;" d="M 211.710938 259.527344 C 211.710938 259.527344 197.910156 328.382812 191.945312 343.804688 C 184.433594 363.414062 185.429688 322.433594 187.527344 310.867188 C 189.734375 299.078125 198.902344 273.082031 211.710938 259.527344 "/>
<path style=" stroke:none;fill-rule:nonzero;fill:rgb(0%,0%,0%);fill-opacity:1;" d="M 187.96875 348.542969 C 187.96875 348.542969 188.191406 347.332031 188.191406 347.769531 C 187.96875 352.949219 185.539062 382.035156 186.09375 387.210938 C 186.644531 392.9375 184.105469 379.9375 184.105469 379.9375 Z M 187.96875 348.542969 "/>
<path style=" stroke:none;fill-rule:nonzero;fill:rgb(0%,0%,0%);fill-opacity:1;" d="M 224.523438 286.851562 C 224.523438 286.851562 206.519531 358.566406 200.558594 373.992188 C 193.046875 393.601562 195.257812 347 197.464844 335.433594 C 199.675781 323.644531 211.820312 300.402344 224.523438 286.851562 "/>
<path style=" stroke:none;fill-rule:nonzero;fill:rgb(0%,0%,0%);fill-opacity:1;" d="M 197.355469 378.398438 C 197.355469 378.398438 197.464844 377.738281 197.464844 378.285156 C 197.246094 384.457031 194.042969 419.15625 194.59375 425.4375 C 195.148438 432.269531 192.164062 416.84375 192.164062 416.84375 Z M 197.355469 378.398438 "/>
<path style=" stroke:none;fill-rule:nonzero;fill:rgb(0%,0%,0%);fill-opacity:1;" d="M 240.976562 321.109375 C 236.339844 337.417969 230.816406 353.390625 224.523438 369.144531 C 218.335938 384.015625 210.277344 396.023438 207.183594 401.53125 C 197.464844 419.15625 206.191406 374.761719 209.613281 363.855469 C 213.371094 352.839844 227.0625 331.246094 240.976562 321.109375 "/>
<path style=" stroke:none;fill-rule:nonzero;fill:rgb(0%,0%,0%);fill-opacity:1;" d="M 203.542969 404.835938 C 203.542969 404.835938 203.652344 404.175781 203.652344 404.726562 C 203.429688 410.894531 200.007812 448.351562 200.667969 454.523438 C 200.890625 455.953125 198.128906 443.507812 198.128906 443.507812 Z M 203.542969 404.835938 "/>
<path style=" stroke:none;fill-rule:nonzero;fill:rgb(0%,0%,0%);fill-opacity:1;" d="M 248.488281 355.152344 C 248.488281 355.152344 240.3125 384.34375 230.15625 409.351562 C 223.308594 426.097656 214.363281 439.648438 210.9375 445.929688 C 200.226562 465.757812 210.054688 415.964844 213.921875 403.734375 C 218.007812 391.175781 233.136719 366.832031 248.488281 355.152344 "/>
<path style=" stroke:none;fill-rule:nonzero;fill:rgb(0%,0%,0%);fill-opacity:1;" d="M 264.609375 411.117188 C 264.609375 411.117188 246.609375 430.394531 233.6875 448.132812 C 218.667969 468.953125 216.019531 471.375 211.601562 474.242188 C 197.574219 483.164062 219.113281 434.03125 225.519531 426.539062 C 232.144531 418.828125 248.816406 409.683594 264.609375 411.117188 "/>
<path style=" stroke:none;fill-rule:nonzero;fill:rgb(0%,0%,0%);fill-opacity:1;" d="M 206.519531 450.886719 C 206.519531 450.886719 206.855469 449.234375 206.742188 449.5625 C 206.519531 452.757812 203.429688 467.742188 204.203125 471.046875 C 204.421875 471.816406 202.765625 465.425781 202.765625 465.425781 Z M 206.519531 450.886719 "/>
<path style=" stroke:none;fill-rule:nonzero;fill:rgb(0%,0%,0%);fill-opacity:1;" d="M 208.953125 472.921875 C 208.953125 472.921875 209.28125 472.148438 209.171875 472.257812 C 208.953125 473.910156 205.96875 481.402344 206.632812 482.945312 C 206.855469 483.273438 205.195312 480.300781 205.195312 480.300781 Z M 208.953125 472.921875 "/>
<path style=" stroke:none;fill-rule:nonzero;fill:rgb(0%,0%,0%);fill-opacity:1;" d="M 306.796875 246.96875 L 209.613281 482.28125 L 204.644531 477.875 Z M 306.796875 246.96875 "/>
<path style=" stroke:none;fill-rule:nonzero;fill:rgb(0%,0%,0%);fill-opacity:1;" d="M 336.28125 218.21875 C 336.28125 218.21875 317.066406 244.105469 306.90625 246.859375 C 306.90625 246.859375 310.882812 226.039062 336.28125 218.21875 "/>
<path style=" stroke:none;fill-rule:nonzero;fill:rgb(0%,0%,0%);fill-opacity:1;" d="M 349.972656 241.90625 C 349.972656 241.90625 322.367188 253.800781 311.875 251.597656 C 311.875 251.597656 323.582031 237.277344 349.972656 241.90625 "/>
<path style=" stroke:none;fill-rule:nonzero;fill:rgb(0%,0%,0%);fill-opacity:1;" d="M 320.488281 194.203125 C 320.488281 194.203125 317.839844 237.609375 306.574219 244.878906 C 306.574219 244.878906 293.210938 213.8125 320.488281 194.203125 "/>
<path style=" stroke:none;fill-rule:nonzero;fill:rgb(0%,0%,0%);fill-opacity:1;" d="M 351.632812 258.871094 C 351.632812 258.871094 318.613281 276.164062 308.785156 280.570312 C 306.464844 281.5625 305.027344 281.78125 304.367188 281.34375 C 302.046875 280.132812 305.691406 273.628906 309.003906 269.777344 C 313.421875 264.707031 331.753906 252.921875 351.632812 258.871094 "/>
<path style=" stroke:none;fill-rule:nonzero;fill:rgb(0%,0%,0%);fill-opacity:1;" d="M 304.367188 280.570312 C 304.367188 280.570312 304.585938 280.460938 304.367188 280.679688 C 301.933594 282.664062 287.359375 294.890625 285.703125 297.535156 C 283.824219 300.511719 287.140625 292.910156 287.140625 292.910156 Z M 304.367188 280.570312 "/>
<path style=" stroke:none;fill-rule:nonzero;fill:rgb(0%,0%,0%);fill-opacity:1;" d="M 312.097656 251.375 C 312.097656 251.375 312.539062 251.488281 312.429688 251.597656 C 309.554688 253.03125 301.386719 262.394531 299.617188 265.039062 C 297.738281 268.011719 300.390625 262.0625 300.390625 262.0625 Z M 312.097656 251.375 "/>
<path style=" stroke:none;fill-rule:nonzero;fill:rgb(0%,0%,0%);fill-opacity:1;" d="M 348.429688 274.070312 C 348.429688 274.070312 313.53125 303.707031 301.386719 306.898438 C 285.925781 310.976562 300.390625 291.695312 304.253906 289.164062 C 308.121094 286.632812 328.441406 270.105469 348.429688 274.070312 "/>
<path style=" stroke:none;fill-rule:nonzero;fill:rgb(0%,0%,0%);fill-opacity:1;" d="M 312.097656 251.375 C 312.097656 251.375 312.539062 251.488281 312.429688 251.597656 C 309.554688 253.03125 301.386719 262.394531 299.617188 265.039062 C 297.738281 268.011719 300.390625 262.0625 300.390625 262.0625 Z M 312.097656 251.375 "/>
<path style=" stroke:none;fill-rule:nonzero;fill:rgb(0%,0%,0%);fill-opacity:1;" d="M 295.863281 305.25 C 295.863281 305.25 296.082031 305.140625 295.863281 305.359375 C 293.210938 307.5625 277.089844 321.332031 275.101562 324.304688 C 273.003906 327.613281 276.980469 319.347656 276.980469 319.347656 Z M 295.863281 305.25 "/>
<path style=" stroke:none;fill-rule:nonzero;fill:rgb(0%,0%,0%);fill-opacity:1;" d="M 358.367188 305.796875 C 358.367188 305.796875 309.113281 331.578125 294.316406 333.449219 C 275.542969 335.875 296.195312 315.164062 301.496094 313.070312 C 306.796875 310.976562 337.054688 299.519531 358.367188 305.796875 "/>
<path style=" stroke:none;fill-rule:nonzero;fill:rgb(0%,0%,0%);fill-opacity:1;" d="M 287.25 331.796875 C 287.25 331.796875 288.132812 331.359375 287.800781 331.578125 C 284.820312 334.109375 267.039062 346.339844 264.941406 349.757812 C 262.511719 353.390625 266.488281 344.796875 266.488281 344.796875 Z M 287.25 331.796875 "/>
<path style=" stroke:none;fill-rule:nonzero;fill:rgb(0%,0%,0%);fill-opacity:1;" d="M 353.953125 333.558594 C 353.953125 333.558594 299.507812 357.574219 284.15625 359.890625 C 264.609375 362.863281 289.238281 340.941406 298.183594 336.753906 C 307.347656 332.457031 332.195312 327.613281 353.953125 333.558594 "/>
<path style=" stroke:none;fill-rule:nonzero;fill:rgb(0%,0%,0%);fill-opacity:1;" d="M 276.980469 358.347656 C 276.980469 358.347656 277.859375 357.90625 277.640625 358.128906 C 274.546875 360.882812 255.773438 374.101562 253.34375 377.625 C 250.808594 381.480469 255.113281 372.339844 255.113281 372.339844 Z M 276.980469 358.347656 "/>
<path style=" stroke:none;fill-rule:nonzero;fill:rgb(0%,0%,0%);fill-opacity:1;" d="M 343.570312 359.339844 C 343.570312 359.339844 289.125 383.355469 273.777344 385.667969 C 254.230469 388.640625 278.855469 366.722656 287.800781 362.535156 C 296.96875 358.347656 321.8125 353.390625 343.570312 359.339844 "/>
<path style=" stroke:none;fill-rule:nonzero;fill:rgb(0%,0%,0%);fill-opacity:1;" d="M 266.597656 384.125 C 266.597656 384.125 267.480469 383.6875 267.261719 383.90625 C 264.167969 386.660156 244.839844 400.320312 242.523438 403.84375 C 239.984375 407.699219 244.511719 397.675781 244.511719 397.675781 Z M 266.597656 384.125 "/>
<path style=" stroke:none;fill-rule:nonzero;fill:rgb(0%,0%,0%);fill-opacity:1;" d="M 342.023438 388.3125 C 342.023438 388.3125 281.394531 409.460938 266.046875 411.886719 C 246.5 414.859375 275.652344 391.066406 284.597656 386.988281 C 293.765625 382.691406 320.269531 382.363281 342.023438 388.3125 "/>
<path style=" stroke:none;fill-rule:nonzero;fill:rgb(0%,0%,0%);fill-opacity:1;" d="M 259.859375 410.894531 C 259.859375 410.894531 260.414062 410.675781 260.082031 411.007812 C 256.328125 414.3125 233.027344 430.285156 230.042969 434.359375 C 226.730469 438.875 232.253906 426.980469 232.253906 426.980469 Z M 259.859375 410.894531 "/>
<path style=" stroke:none;fill-rule:nonzero;fill:rgb(0%,0%,0%);fill-opacity:1;" d="M 340.589844 424.996094 C 325.679688 429.292969 310.550781 432.488281 295.089844 434.582031 C 279.847656 436.453125 264.058594 434.46875 257.542969 434.359375 C 236.890625 433.921875 271.679688 418.277344 281.726562 415.855469 C 291.996094 413.429688 319.382812 415.855469 340.589844 424.996094 "/>
<path style=" stroke:none;fill-rule:nonzero;fill:rgb(0%,0%,0%);fill-opacity:1;" d="M 251.578125 432.269531 C 251.578125 432.269531 252.132812 432.046875 251.800781 432.378906 C 248.042969 435.683594 222.863281 452.976562 220.105469 457.273438 C 219.441406 458.265625 223.527344 448.351562 223.527344 448.351562 Z M 251.578125 432.269531 "/>
<path style=" stroke:none;fill-rule:nonzero;fill:rgb(0%,0%,0%);fill-opacity:1;" d="M 329.324219 452.207031 C 329.324219 452.207031 303.703125 459.917969 278.304688 463.117188 C 261.296875 465.316406 243.625 463.335938 236.339844 463.226562 C 213.257812 463.003906 252.460938 445.378906 263.726562 442.625 C 275.210938 439.867188 305.800781 442.292969 329.324219 452.207031 "/>
<path style=" stroke:none;fill-rule:nonzero;fill:rgb(0%,0%,0%);fill-opacity:1;" d="M 315.078125 500.679688 C 315.078125 500.679688 284.265625 492.308594 260.082031 488.671875 C 231.699219 484.375 227.394531 482.945312 220.988281 479.859375 C 200.558594 469.945312 252.242188 465.316406 263.503906 467.851562 C 274.992188 470.496094 298.621094 483.164062 315.078125 500.679688 "/>
<path style=" stroke:none;fill-rule:nonzero;fill:rgb(0%,0%,0%);fill-opacity:1;" d="M 228.609375 461.351562 C 228.609375 461.351562 229.824219 460.691406 229.714844 460.910156 C 227.726562 462.5625 215.6875 467.632812 214.695312 470.277344 C 214.472656 470.933594 216.347656 465.648438 216.347656 465.648438 Z M 228.609375 461.351562 "/>
<path style=" stroke:none;fill-rule:nonzero;fill:rgb(0%,0%,0%);fill-opacity:1;" d="M 218.558594 476.222656 C 218.558594 476.222656 219.332031 476.003906 219.222656 476.113281 C 218.117188 476.882812 210.386719 477.765625 210.386719 479.527344 C 210.386719 479.96875 210.386719 476.554688 210.386719 476.554688 Z M 218.558594 476.222656 "/>
<path style=" stroke:none;fill-rule:nonzero;fill:rgb(0%,0%,0%);fill-opacity:1;" d="M 309.886719 212.378906 C 309.886719 212.378906 301.714844 243.996094 303.371094 253.910156 C 303.371094 253.910156 313.53125 237.609375 309.886719 212.378906 "/>
<path style=" stroke:none;fill-rule:nonzero;fill:rgb(0%,0%,0%);fill-opacity:1;" d="M 292.660156 216.015625 C 292.660156 216.015625 294.757812 245.648438 299.175781 252.808594 C 301.496094 240.140625 299.175781 227.140625 292.660156 216.015625 "/>
<path style=" stroke:none;fill-rule:nonzero;fill:rgb(0%,0%,0%);fill-opacity:1;" d="M 328 209.957031 C 328 209.957031 305.027344 239.152344 304.585938 252.808594 C 304.585938 252.808594 325.789062 244.214844 328 209.957031 "/>
<path style=" stroke:none;fill-rule:nonzero;fill:rgb(0%,0%,0%);fill-opacity:1;" d="M 282.941406 225.269531 C 282.941406 225.269531 283.824219 262.613281 284.375 273.300781 C 284.488281 275.835938 284.820312 277.046875 285.371094 277.375 C 286.808594 278.480469 289.125 271.429688 290.230469 266.359375 C 291.667969 259.527344 292.441406 237.496094 282.941406 225.269531 "/>
<path style=" stroke:none;fill-rule:nonzero;fill:rgb(0%,0%,0%);fill-opacity:1;" d="M 285.8125 276.824219 C 285.8125 276.824219 285.8125 276.605469 285.8125 276.824219 C 285.371094 280.132812 283.273438 299.410156 282.277344 302.496094 C 281.175781 305.796875 284.375 298.417969 284.375 298.417969 Z M 285.8125 276.824219 "/>
<path style=" stroke:none;fill-rule:nonzero;fill:rgb(0%,0%,0%);fill-opacity:1;" d="M 299.285156 252.367188 C 299.285156 252.367188 299.066406 252.148438 299.066406 252.257812 C 299.175781 255.453125 296.636719 267.792969 295.640625 270.875 C 294.539062 274.183594 296.96875 268.453125 296.96875 268.453125 Z M 299.285156 252.367188 "/>
<path style=" stroke:none;fill-rule:nonzero;fill:rgb(0%,0%,0%);fill-opacity:1;" d="M 275.542969 237.277344 C 275.542969 237.277344 270.242188 283.875 272.230469 295.664062 C 274.769531 310.648438 280.84375 286.960938 281.0625 282.222656 C 281.285156 277.488281 283.9375 250.9375 275.542969 237.277344 "/>
<path style=" stroke:none;fill-rule:nonzero;fill:rgb(0%,0%,0%);fill-opacity:1;" d="M 299.285156 252.367188 C 299.285156 252.367188 299.066406 252.148438 299.066406 252.257812 C 299.175781 255.453125 296.636719 267.792969 295.640625 270.875 C 294.539062 274.183594 296.96875 268.453125 296.96875 268.453125 Z M 299.285156 252.367188 "/>
<path style=" stroke:none;fill-rule:nonzero;fill:rgb(0%,0%,0%);fill-opacity:1;" d="M 274.882812 298.96875 C 274.882812 298.96875 274.882812 298.746094 274.882812 298.96875 C 274.4375 302.605469 271.898438 324.085938 270.90625 327.613281 C 269.800781 331.359375 273.003906 322.984375 273.003906 322.984375 Z M 274.882812 298.96875 "/>
<path style=" stroke:none;fill-rule:nonzero;fill:rgb(0%,0%,0%);fill-opacity:1;" d="M 255.113281 249.066406 C 255.113281 249.066406 256.328125 304.808594 259.859375 317.917969 C 264.386719 334.550781 269.25 305.027344 268.804688 299.410156 C 268.367188 293.792969 265.273438 262.285156 255.113281 249.066406 "/>
<path style=" stroke:none;fill-rule:nonzero;fill:rgb(0%,0%,0%);fill-opacity:1;" d="M 263.0625 322.433594 C 263.0625 322.433594 263.0625 321.441406 262.953125 321.882812 C 262.511719 325.851562 261.296875 347.769531 260.191406 351.628906 C 258.976562 355.8125 262.511719 347.332031 262.511719 347.332031 Z M 263.0625 322.433594 "/>
<path style=" stroke:none;fill-rule:nonzero;fill:rgb(0%,0%,0%);fill-opacity:1;" d="M 241.417969 269.886719 C 241.417969 269.886719 245.175781 328.714844 248.707031 342.484375 C 253.125 360.109375 257.542969 326.621094 256.988281 316.816406 C 256.4375 306.789062 251.355469 283.765625 241.417969 269.886719 "/>
<path style=" stroke:none;fill-rule:nonzero;fill:rgb(0%,0%,0%);fill-opacity:1;" d="M 251.800781 347.332031 C 251.800781 347.332031 251.800781 346.339844 251.6875 346.671875 C 251.246094 350.855469 249.8125 374.210938 248.597656 378.285156 C 247.273438 382.804688 250.917969 373.660156 250.917969 373.660156 Z M 251.800781 347.332031 "/>
<path style=" stroke:none;fill-rule:nonzero;fill:rgb(0%,0%,0%);fill-opacity:1;" d="M 230.484375 294.339844 C 230.484375 294.339844 234.242188 353.167969 237.773438 366.941406 C 242.191406 384.566406 246.609375 351.078125 246.054688 341.273438 C 245.503906 331.246094 240.425781 308.113281 230.484375 294.339844 "/>
<path style=" stroke:none;fill-rule:nonzero;fill:rgb(0%,0%,0%);fill-opacity:1;" d="M 240.867188 371.675781 C 240.867188 371.675781 240.867188 370.6875 240.757812 371.015625 C 240.3125 375.203125 238.769531 399.328125 237.554688 403.40625 C 236.226562 407.921875 240.3125 397.894531 240.3125 397.894531 Z M 240.867188 371.675781 "/>
<path style=" stroke:none;fill-rule:nonzero;fill:rgb(0%,0%,0%);fill-opacity:1;" d="M 215.136719 313.621094 C 215.136719 313.621094 222.425781 375.644531 225.957031 389.523438 C 230.375 407.152344 234.351562 368.8125 233.796875 359.007812 C 233.246094 348.984375 225.074219 327.503906 215.136719 313.621094 "/>
<path style=" stroke:none;fill-rule:nonzero;fill:rgb(0%,0%,0%);fill-opacity:1;" d="M 228.277344 393.820312 C 228.277344 393.820312 228.277344 393.269531 228.277344 393.820312 C 227.503906 398.777344 226.066406 427.53125 224.742188 432.488281 C 223.308594 437.886719 228.054688 426.097656 228.054688 426.097656 Z M 228.277344 393.820312 "/>
<path style=" stroke:none;fill-rule:nonzero;fill:rgb(0%,0%,0%);fill-opacity:1;" d="M 195.476562 337.636719 C 197.6875 351.957031 200.667969 366.167969 204.421875 380.160156 C 208.179688 393.601562 214.140625 405.054688 216.238281 410.234375 C 222.863281 426.648438 220.65625 388.753906 218.890625 379.167969 C 216.902344 369.476562 207.074219 348.984375 195.476562 337.636719 "/>
<path style=" stroke:none;fill-rule:nonzero;fill:rgb(0%,0%,0%);fill-opacity:1;" d="M 219.222656 413.757812 C 219.222656 413.757812 219.222656 413.210938 219.222656 413.757812 C 218.449219 418.71875 216.792969 449.785156 215.355469 454.742188 C 215.023438 455.84375 219.113281 446.371094 219.113281 446.371094 Z M 219.222656 413.757812 "/>
<path style=" stroke:none;fill-rule:nonzero;fill:rgb(0%,0%,0%);fill-opacity:1;" d="M 184.105469 363.636719 C 186.53125 379.71875 189.84375 395.804688 194.042969 411.558594 C 198.128906 426.648438 204.753906 439.648438 207.074219 445.488281 C 214.472656 463.996094 211.820312 421.472656 209.835938 410.675781 C 207.738281 399.546875 196.914062 376.414062 184.105469 363.636719 "/>
<path style=" stroke:none;fill-rule:nonzero;fill:rgb(0%,0%,0%);fill-opacity:1;" d="M 162.019531 405.386719 C 162.019531 405.386719 176.152344 424.996094 185.648438 442.183594 C 196.804688 462.34375 198.902344 464.988281 202.65625 468.179688 C 214.472656 478.539062 200.890625 433.921875 196.03125 426.539062 C 191.058594 418.828125 176.703125 407.699219 162.019531 405.386719 "/>
<path style=" stroke:none;fill-rule:nonzero;fill:rgb(0%,0%,0%);fill-opacity:1;" d="M 210.496094 450.335938 C 210.496094 450.003906 210.496094 449.5625 210.386719 449.234375 C 210.167969 451.878906 211.050781 464.765625 209.945312 467.191406 C 209.722656 467.742188 211.933594 463.003906 211.933594 463.003906 Z M 210.496094 450.335938 "/>
<path style=" stroke:none;fill-rule:nonzero;fill:rgb(0%,0%,0%);fill-opacity:1;" d="M 205.417969 467.742188 C 205.417969 467.742188 205.304688 466.96875 205.195312 467.191406 C 205.195312 468.511719 206.964844 475.34375 206.082031 476.441406 C 205.859375 476.664062 207.738281 474.570312 207.738281 474.570312 Z M 205.417969 467.742188 "/>
</g>
</svg>
